<svg xmlns="http://www.w3.org/2000/svg" viewBox="0 0 1000 1000" xml:space="preserve"><switch><g><circle fill="#13333D" cx="500" cy="500" r="398"/><circle fill="#0F3D4E" cx="500" cy="500" r="344.3"/><path fill="#13333D" d="m748.2 425.7-6.9-4.7-.8-.6-19.1-13a9.99 9.99 0 0 0-13.9 2.7L694 429.9v-66.3c0-13.8-11.2-25-25-25H540.9l-22.8-41.1c-4.8-8.7-14-14-23.9-14H333.3c-15.1 0-27.3 12.2-27.3 27.3v400.8c0 13.8 11.2 25 25 25h338c13.8 0 25-11.2 25-25V523.4l56.9-83.8a9.99 9.99 0 0 0-2.7-13.9z"/><g><path fill="#952584" d="M494.2 263.4H333.3c-15.1 0-27.3 12.2-27.3 27.3V342h247.9L518 277.4c-4.8-8.6-13.9-14-23.8-14z"/><path fill="#952584" d="M669 716.6H331c-13.8 0-25-11.2-25-25v-338c0-13.8 11.2-25 25-25h338c13.8 0 25 11.2 25 25v338c0 13.8-11.2 25-25 25z"/><path fill="#A44995" d="M669 706.6H331c-13.8 0-25-11.2-25-25v-338c0-13.8 11.2-25 25-25h338c13.8 0 25 11.2 25 25v338c0 13.8-11.2 25-25 25z"/><path fill="#FFF" d="M651 413.6H349c-5.5 0-10 4.5-10 10v237.3c0 5.5 4.5 10 10 10h302c5.5 0 10-4.5 10-10V423.6c0-5.6-4.5-10-10-10z"/><path fill="#DADADA" d="M651 660.9H349c-5.5 0-10-4.5-10-10v10c0 5.5 4.5 10 10 10h302c5.5 0 10-4.5 10-10v-10c0 5.5-4.5 10-10 10z"/><path fill="#FFF" d="M565 349.7H359c-11 0-20 9-20 20v5c0 11 9 20 20 20h206c11 0 20-9 20-20v-5c0-11.1-9-20-20-20z"/><path fill="#DADADA" d="M565 384.7H359c-10.2 0-18.6-7.6-19.8-17.5-.1.8-.2 1.7-.2 2.5v5c0 11 9 20 20 20h206c11 0 20-9 20-20v-5c0-.8-.1-1.7-.2-2.5-1.2 9.9-9.6 17.5-19.8 17.5z"/><path fill="#36A9E1" d="M641 349.7h-14.7c-11 0-20 9-20 20v5c0 11 9 20 20 20H641c11 0 20-9 20-20v-5c0-11.1-9-20-20-20z"/><path fill="#0091C5" d="M641 384.7h-14.7c-10.2 0-18.6-7.6-19.8-17.5-.1.8-.2 1.7-.2 2.5v5c0 11 9 20 20 20H641c11 0 20-9 20-20v-5c0-.8-.1-1.7-.2-2.5-1.2 9.9-9.6 17.5-19.8 17.5z"/><path fill="#36A9E1" d="M443.7 523.7H371c-2.8 0-5-2.2-5-5V446c0-2.8 2.2-5 5-5h72.7c2.8 0 5 2.2 5 5v72.7c0 2.7-2.3 5-5 5zm-67.7-10h62.7V451H376v62.7zM616.6 473.5H477.4c-7.6 0-13.8-6.2-13.8-13.8 0-7.6 6.2-13.8 13.8-13.8h139.1c7.6 0 13.8 6.2 13.8 13.8 0 7.7-6.1 13.8-13.7 13.8zM616.6 518.8H477.4c-7.6 0-13.8-6.2-13.8-13.8 0-7.6 6.2-13.8 13.8-13.8h139.1c7.6 0 13.8 6.2 13.8 13.8 0 7.6-6.1 13.8-13.7 13.8z"/><g><path fill="#413E91" d="M410.5 504.9c-2.2-.4-4.3-1.6-5.7-3.5l-21.9-29.5c-2.9-4-2.1-9.5 1.8-12.5 4-2.9 9.5-2.1 12.5 1.8l14.9 20.1 27.7-35.8c3-3.9 8.6-4.6 12.5-1.6 3.9 3 4.6 8.6 1.6 12.5L419 501.5c-1.7 2.2-4.3 3.5-7.1 3.5-.5 0-1 0-1.4-.1z"/><path fill="#2C3088" d="M452.5 444 412 496.3l-22.4-30.2c-1.7-2.3-4.1-3.9-6.7-4.8-2.2 3.1-2.3 7.4 0 10.6l21.9 29.5c1.4 1.9 3.4 3.1 5.7 3.5.5.1.9.1 1.4.1 2.8 0 5.4-1.2 7.1-3.5l34.9-45.1c3-3.8 2.4-9.3-1.4-12.4z"/></g><path fill="#DADADA" d="M371 551.3h72.7V624H371zM616.6 578.9H477.4c-7.6 0-13.8-6.2-13.8-13.8 0-7.6 6.2-13.8 13.8-13.8h139.1c7.6 0 13.8 6.2 13.8 13.8 0 7.6-6.1 13.8-13.7 13.8zM616.6 624.1H477.4c-7.6 0-13.8-6.2-13.8-13.8 0-7.6 6.2-13.8 13.8-13.8h139.1c7.6 0 13.8 6.2 13.8 13.8 0 7.6-6.1 13.8-13.7 13.8z"/><path fill="#952584" d="m690 425.7-9.5 14.1-19.5 28.7V562l33-48.6v-93.5z"/><path fill="#DADADA" d="m661 468.5-67.7 99.7c-.4.7-.8 1.4-1.1 2.1-.1.3-.2.7-.3 1-.1.4-.2.7-.2 1.1l-6.3 46.1c-.3 2 .7 3.8 2.1 4.8 1.5 1 3.5 1.2 5.3.2l40.6-22.8.9-.6c.3-.2.6-.4.8-.7.6-.5 1.1-1.1 1.6-1.8L661 562v-93.5z"/><g><path fill="#2C3088" d="m633.4 590.8-40.6 22.8c-3.6 2-8-.9-7.4-5l6.3-46.1c.2-1.5.8-3 1.6-4.3l114.1-168.1c3.1-4.6 9.3-5.8 13.9-2.7l26.9 18.3c4.6 3.1 5.8 9.3 2.7 13.9L636.8 587.7c-.9 1.3-2.1 2.3-3.4 3.1z"/><path fill="#413E91" d="M622.7 583.5 591 612.3c-2.8 2.6-4.9 1.1-3.6-2.4l15.1-40.1c.5-1.3 1.2-2.7 2.1-4l114.1-168.1c3.1-4.6 7.4-7.1 9.6-5.5l13.1 8.9c2.2 1.5 1.5 6.4-1.6 11l-114.2 168c-.9 1.3-1.9 2.5-2.9 3.4z"/><path fill="#0091C5" d="m690.008 415.714 43.438 29.484-9.547 14.066-43.438-29.484z"/><path fill="#36A9E1" d="m701.094 423.24 21.347 14.49-9.547 14.065-21.347-14.49z"/><path fill="#0091C5" d="M592.2 560.3c-.3.7-.4 1.4-.6 2.2l-6.3 46.1c-.6 4.1 3.8 7.1 7.4 5l40.6-22.8c.7-.4 1.3-.8 1.8-1.3l-42.9-29.2z"/><path fill="#36A9E1" d="M603.3 567.8c-.3.6-.6 1.3-.9 1.9l-15.1 40.1c-1.3 3.6.8 5 3.6 2.4l31.7-28.8 1.5-1.5-20.8-14.1z"/></g></g></g></switch></svg>